<svg width="200" height="130" viewBox="0 0 200 130" fill="none" xmlns="http://www.w3.org/2000/svg">
  <path d="M10 65C10 25 25 6 58 6C91 6 106 25 106 65C106 105 91 124 58 124C25 124 10 105 10 65ZM34 65C34 92 41 105 58 105C75 105 82 92 82 65C82 38 75 25 58 25C41 25 34 38 34 65Z" stroke="url(#paint0_linear)" stroke-width="2"/>
  <path d="M110 6H160V25H130V44H150C156 44 163 50 163 56V106C163 116 156 124 143 124H110V105H143V82H110V6Z" stroke="url(#paint0_linear)" stroke-width="2"/>
  <defs>
    <linearGradient id="paint0_linear" x1="100" y1="-17" x2="100" y2="100" gradientUnits="userSpaceOnUse">
      <stop stop-color="#8B8B8B"/>
      <stop offset="1" stop-color="#8B8B8B" stop-opacity="0"/>
    </linearGradient>
  </defs>
</svg>